<svg xmlns="http://www.w3.org/2000/svg"
preserveAspectRatio="xMinYMin meet" class="svg-content" width="555.062" height="80"  xmlns:v="https://vecta.io/nano"><g fill="#305034"><path d="M456.065 79.999c1.093-2.746 2.606-5.334 3.146-8.289.167-1.036.91-1.886 1.915-2.19 3.929-1.5 7.944-2.742 11.952-4 .16.147.219.374.151.581-.555 1.93-.152 3.834.145 5.741.358 2.3.824 4.571 1.293 6.846a1.45 1.45 0 0 1-.093 1.316h-6.169c-.459-.392-.831-.876-1.091-1.421a26.13 26.13 0 0 0-4.316-5.472 21.64 21.64 0 0 1 4.343 6.382.5.5 0 0 1 0 .506z"/><path d="M473.285 65.314a31.31 31.31 0 0 1 3.875-3.372 6.19 6.19 0 0 1 3.441-1.143c.965-.168.941.571.939 1.133a19.78 19.78 0 0 0 1.151 5.772 13.25 13.25 0 0 0 1.058 3.09l3.214 8.1c.164.347.373.7.161 1.108h-11.487a2.3 2.3 0 0 1-.7-1.387l-1.638-7.544a12.79 12.79 0 0 1-.014-5.757zm38.137 5.674l3.591 6.221L516.696 80h-9.148a1.59 1.59 0 0 1-.79-.946 33.76 33.76 0 0 0-2.813-6.144 1.72 1.72 0 0 1-.327-1.094c.224-.507.61-.149.924-.182a2.67 2.67 0 0 1 3.388-1.124 4.75 4.75 0 0 1 1.063.466c.706.576 1.718.581 2.429.012z"/></g><path d="M499.889 80h-6.807c-1.62-1.27-3.049-2.766-4.245-4.441-.104-.146-.121-.338-.043-.5a4.05 4.05 0 0 0 1.092-1.291c.5-.128.921.176 1.39.219.8.126 1.6.091 2.4.143.298-.094.6-.171.907-.229.104-.004.208.009.307.039 2.473 1.419 3.678.907 4.5-1.914a1.3 1.3 0 0 1 .231-.469c.338-.254.668-.581 1.094-.138.5 1.074.036 2.16-.018 3.227-.041 1.442-.167 2.879-.378 4.306a1.79 1.79 0 0 1-.43 1.048z" fill="#9a6f52"/><path d="M499.889 80q.358-4.367.717-8.733a.69.69 0 0 1-.048-.3c.288-.644.684-1.235 1.169-1.748.119-.108.28-.156.438-.133s.298.118.38.256c.629.643 1.043 1.465 1.185 2.353a59.9 59.9 0 0 1 3.817 8.3zm-11.084-4.833c1.337 1.689 3.015 3.075 4.275 4.833h-5.955c-1.455-2.941-2.681-5.989-3.668-9.118a.6.6 0 0 1 .461-.362c.8.036 1.087.812 1.673 1.156a4.32 4.32 0 0 0 1.1.906c.661.897 1.397 1.734 2.114 2.585z" fill="#fefefe"/><path d="M473.285 65.311c.3.506.01 1.024-.016 1.523-.153 3.017.889 5.829 1.427 8.726l.94 4.437h-1.064a74.47 74.47 0 0 1-1.916-11.038 8.1 8.1 0 0 1 .42-3.446zM467.341 80a38.9 38.9 0 0 0-3.827-5.949 22.38 22.38 0 0 1-1.478-1.782 18.01 18.01 0 0 1 6.369 7.732z" fill="#203023"/><path d="M456.243 24.674l.659-2.7a.56.56 0 0 1-.106-.7c-.589-4.245 1.651-7.233 4.5-9.892 1.585-1.433 3.514-2.429 5.6-2.893-.042-.107.386-.1.088-.221-.493-.207-1.054.039-1.566-.148-1.504.021-2.989-.33-4.324-1.022a31.52 31.52 0 0 0 3.292-.174c3.322-.47 6.34-1.962 9.557-2.774.981-.255 1.902-.701 2.712-1.311A13.23 13.23 0 0 1 487.979.394c1.624.41 3.081 1.313 4.172 2.583a2.38 2.38 0 0 0 1.214.756 34.7 34.7 0 0 1 4.8 1.956l1.5.933a.73.73 0 0 1 .582.419c1.689 1.474 3.3 3.008 3.95 5.263.076.159.195.294.344.39a11.59 11.59 0 0 1 3.164 4.311 10.58 10.58 0 0 1-.086 7.889c-.05.113.005.272.011.41-.482.394-.86.088-1.244-.182a3.63 3.63 0 0 1-.746-1.271 52.65 52.65 0 0 0-4.876-8.581c-.819-1.17-1.075-1.237-1.966-.127-1.915 2.386-4.364 4.288-7.149 5.554-.834.391-1.697.717-2.582.973-.787.224-1.44.778-1.789 1.518-1.614 3.155-4.684 5.307-8.2 5.748a3.33 3.33 0 0 1-.634.061c-.251-.011-.522-.03-.656-.273-.171-.31.047-.547.243-.743a19.17 19.17 0 0 1 1.647-1.34c.94-.739 1.792-1.583 2.539-2.516-4.494 2.545-6.933 6.582-7.669 11.759-.256 1.682-.323 3.387-.2 5.083.039.481.287 1.081-.247 1.359-.5.261-.92-.223-1.308-.506a8.98 8.98 0 0 0-3.29-1.674c-2.022-.455-3.034.352-3.092 2.435a9.19 9.19 0 0 0 1.29 4.544c.22.423.617.815.331 1.365-1.883 1.415-3.319 1.885-4.725 1.487.556-.705 1.339-1.2 1.638-2.116a4.09 4.09 0 0 1-3.344.844c-.243-.053-.854-.005-.419-.6l-.011.016c.4-.352.912-.524 1.306-.88.4-.293.258-.721.191-1.068-.298-1.741-.921-3.411-1.837-4.921-2.824-4.451-4.9-9.157-4.768-14.577.021-.667.119-1.334.18-2.001z" fill="#1f170d"/><path d="M468.037 48.491a2.63 2.63 0 0 0-.528-1.029 9.44 9.44 0 0 1-1.494-5.236 2.43 2.43 0 0 1 3.1-2.535 8.83 8.83 0 0 1 3.9 1.827l1.072.8c-.616-8.158 1.154-15.059 9.05-18.983a22.4 22.4 0 0 1-5.183 5.243 10.17 10.17 0 0 0 8.185-4.158c.272-.281.488-.611.634-.974.408-1.5 1.561-1.919 2.892-2.371 3.241-.99 6.119-2.913 8.275-5.527.46-.581 1.034-1.071 1.5-1.648.274-.341.455-.253.663 0 .425.521.871 1.03 1.249 1.583 2.022 2.954 3.74 6.106 5.128 9.406-.03.625-.575.486-.927.608a14.94 14.94 0 0 0-6.652 4.741c-.092.098-.097.25-.01.353a24.69 24.69 0 0 0 1.992-1.537c1.226-1.019 2.556-1.907 3.968-2.649 1.209-.588 1.837-.368 2.552.8a6.74 6.74 0 0 1 .036 2.441c-.084.548-.593 1-.354 1.623.517 2.025-.08 4.164.639 6.168a31.07 31.07 0 0 0-4.29 2.3c-.283.212-.579.408-.851.635-.737.617-.733.744.016 1.347.928.747.955 1.132.138 1.938a5.1 5.1 0 0 1-2.929 1.572c-1.038.218-2.055.53-2.99.742 3.387.116 4.048-.125 5.74-2.135a2 2 0 0 1 1.075-.4c1.354-.24 2.672-.651 3.923-1.223.414-.168.834-.435 1.294-.1a1.94 1.94 0 0 1-.052 1.348 27.81 27.81 0 0 1-3.489 8.728c-1.244 1.895-2.39 3.851-3.436 5.862-.255.469-.174.679.295.82-.95 1.44-2.227 2.635-3.726 3.488a5.41 5.41 0 0 1-1.237.474 7.5 7.5 0 0 1-1.9.093c-4.643-.457-9.14-1.881-13.2-4.179a8.21 8.21 0 0 1-.953-.655c-2.316-1.558-3.1-4.108-4.164-6.469-.549-1.217-.522-1.226-1.5-.3-.228.216-.478.41-.718.614a2 2 0 0 1-2.562.475c-.352-.152-.688-.345-1.032-.519a1.58 1.58 0 0 1-.367-.278c-.612-.795-1.668-1.2-1.977-2.263a1.81 1.81 0 0 0-.795-.861z" fill="#ab805c"/><path d="M498.352 62.099c1.08-.827 2.383-1.42 2.9-2.83.156-.425.581-.321.913-.384a3.98 3.98 0 0 1 1.4.444 7.06 7.06 0 0 0 1.38 1.709 35.27 35.27 0 0 1 5.16 8.489c.06.129.111.263.151.4.085.3.271.636.039.908-.286.335-.659.129-.98.007-.522-.218-1.06-.393-1.61-.526-1.823-.379-2.814.33-3.13 2.239-.424-.142-.144-.986-.847-.849l-1.357-2.133c-.139-.221-.264-.416-.537-.163-.384-.175-.294-.606-.482-.886l-.49-.733a16.8 16.8 0 0 1-2.541-4.128c-.118-.303-.191-.621-.218-.945a1.3 1.3 0 0 1 .249-.619z" fill="#305034"/><path d="M508.846 42.123c-1.963.905-4.035 1.553-6.164 1.927a.43.43 0 0 1-.055-.628c.773-.6.487-1.011-.208-1.417-1.28-.747-1.25-.931-.059-1.883 1.256-.965 2.62-1.779 4.066-2.426.4-.191.807-.46 1.294-.25a21.97 21.97 0 0 1 1.126 4.677z" fill="#a67653"/><path d="M504.577 72.548c-.032-2.073 1.208-3.038 3.252-2.584a14.95 14.95 0 0 1 2.451.926c-1.156-3.033-2.736-5.887-4.694-8.476l-2.092-2.525c-.2-.234-.437-.439.074-.564.95.544 1.773 1.284 2.414 2.171a28.87 28.87 0 0 1 5.44 9.491c-.248.96-.855 1.115-1.684.739l-1.227-.6c-2.026-.97-3.118-.57-3.934 1.422z" fill="#203023"/><path d="M507.089 27.034c-.216-.33-.559-.555-.947-.623s-.787.029-1.102.267a30.31 30.31 0 0 0-5.033 3.527q-.58.464-1.165.923a.41.41 0 0 1-.492.063.4.4 0 0 1-.113-.568c.264-.459.578-.889.935-1.28 2.084-2.051 4.338-3.841 7.306-4.446a2.65 2.65 0 0 0 1.153.407c.281.455.456.968.512 1.5-.317.24-.615.559-1.054.23z" fill="#342015"/><path d="M507.089 27.034c.381.061.629-.493 1.053-.228a19.32 19.32 0 0 1 .651 3.845c.059.457.118.984-.5 1.112s-.725-.412-.894-.829c-.04-.1-.061-.2-.092-.3a.78.78 0 0 1-.236-.82q.011-1.392.018-2.78z" fill="#20180e"/><path d="M507.073 29.81l.236.82c-.25.154-.152.43-.227.646a1.49 1.49 0 0 1-.009-1.466z" fill="#a29882"/><path d="M481.15 58.103c.445-.247.738.132 1.043.3 3.769 2.097 7.89 3.486 12.159 4.1.278.041.563.04.844.058-.137.763-.853.821-1.363.955-3.486.978-6.716 2.706-9.464 5.063a.89.89 0 0 1-.576.238c-.712-.251-.669-.989-1.017-1.565-.082.249-.112.516-.366.615a15.42 15.42 0 0 1-1.223-6.158c.033-.451.01-.863-.583-.912.506-.1.779-.306.663-.912-.078-.591-.118-1.186-.117-1.782z" fill="#916244"/><path d="M468.834 49.358a11.94 11.94 0 0 1 2.106 2.087c-.03.615-.561.887-.888 1.3a.34.34 0 0 1-.41.037c-.1.01-.236-.016-.31.037-2.39 1.711-4.859 1.234-7.7.163 3.001-.462 5.518-1.279 7.202-3.624z" fill="#20180e"/><path d="M469.643 52.782l.237-.16c.465-.291.7-.9 1.321-.975.169.028.386 0 .5.094a2.63 2.63 0 0 0 3.074.2c-.76 1.985-3.584 2.908-5.741 1.87.029-.443.69-.519.609-1.029z" fill="#20190f"/><path d="M462.483 47.243c-.2.645-.787.711-1.306.879a1.81 1.81 0 0 1 1.306-.879z" fill="#b0dddb"/><path d="M461.526 71.743l-.072.225a3.1 3.1 0 0 1-.311-.238c-.018-.017.033-.107.052-.163z" fill="#28422c"/><path d="M482.406 67.869c.065-.437-.111-.894.117-1.4.834.571.8 1.535 1.2 2.261.098.066.183.15.252.246.253.554.482 1.108-.021 1.652l-.5.256c-.558-.92-.916-1.947-1.048-3.015z" fill="#f6b712"/><path d="M488.807 75.167c-1.2-.387-1.632-1.507-2.3-2.405a1.91 1.91 0 0 1-.572-1.251c.048-.552-.037-1.176.619-1.451a1.64 1.64 0 0 1 1.663.4c.872.67 1.518 1.591 1.852 2.639.073.231.027.483-.124.673.017.787-.119 1.452-1.138 1.395z" fill="#80cc27"/><path d="M499.693 71.682c-.079 2.166-1.209 3.483-2.936 3.433-.795.002-1.536-.407-1.958-1.081-.29-.642.3-.629.61-.825l.689-.279.409-.162c1.05-.294 1.885-1.049 2.921-1.374.168.023.282.095.265.288z" fill="#38291b"/><path d="M493.909 74.428a6.88 6.88 0 0 1-2.845-.181c-.245-.509-.857-.92-.432-1.611a6.54 6.54 0 0 1 2.688.118 2.34 2.34 0 0 1 .589 1.674z" fill="#f8b912"/><path d="M490.545 72.814c.338.418.8.79.52 1.434-.493.123-.807-.171-1.117-.476l-.168-.612q.084-.831.765-.346z" fill="#ced1c8"/><path d="M493.909 74.428c-.434-.383-.856-.77-.425-1.413.541-.454.877-.137 1.178.312a1.76 1.76 0 0 1-.011.709.73.73 0 0 1-.742.392z" fill="#cccdc2"/><path d="M499.694 71.682l-.233-.183a.63.63 0 0 1-.233-.452.95.95 0 0 1 .833-.977c.636.049.63.538.678.991l-.131.208c-.32.097-.512.49-.914.413z" fill="#c7cac6"/><path d="M494.651 74.038l-.115-.615.115-.14a.72.72 0 0 1 .98.123c-.171.351-.846.033-.832.628h-.074z" fill="#7b736e"/><path d="M500.737 71.06c-.352-.183-.084-.818-.628-.861-.168-.472.225-.7.437-1.005.373-.273.488-.856 1.061-.889.319.316.141.735.23 1.1a7.92 7.92 0 0 1-1.1 1.655z" fill="#1b1d1c"/><path d="M483.96 70.623l-.19-1.664c1.008.109 1.465.82 1.814 1.653-.119.419.237.909-.186 1.284z" fill="#1c1c19"/><path d="M485.397 71.898c.094-.423-.434-.858.027-1.273.688-.145.629.461.821.815q.133.661.266 1.322a2.54 2.54 0 0 1-1.114-.864z" fill="#c6cac5"/><path d="M467.53 37.637c.102-1.305.419-2.583.94-3.784 2.028-4.957 5.056-9.046 10.007-11.448.254-.106.514-.197.779-.272.073-.067.169-.101.268-.096s.191.05.255.125c-5.821 3.651-10.11 9.3-12.062 15.888-.37 0-.273-.208-.187-.413z" fill="#949493"/><path d="M486.26 9.122a24.65 24.65 0 0 0-10.087 6.25l-6.679 6.525c-.138.149-.3.271-.461.409-.3-.339 0-.5.127-.663 2.995-3.955 6.576-7.428 10.621-10.3 1.714-1.265 3.708-2.099 5.813-2.43.255-.029.579-.291.666.209z" fill="#939393"/><path d="M483.987 16.993c5.175.648 9.814-1.062 14.325-3.337-2.791 2.887-9.3 5.856-14.783 3.546-.002-.408.252-.26.458-.209z" fill="#939392"/><path d="M469.47 10.938a16.27 16.27 0 0 0-5.251 3.692l-4.431 5c1.114-4.667 5.851-8.856 9.682-8.692z" fill="#939393"/><path d="M461.767 23.395a46.7 46.7 0 0 0 3.146 14.951c-2.535-2.555-4.593-9.679-3.146-14.951z" fill="#939392"/><path d="M506.288 19.568a17.01 17.01 0 0 0-2.795-4.787c1.552.243 2.7 1.767 3.015 3.909.039.321.329.705-.22.878z" fill="#8f8f8f"/><path d="M497.681 12.603a15.51 15.51 0 0 1-3.426-1.151 8.1 8.1 0 0 1 3.7.932c.026.219-.061.299-.274.219z" fill="#868584"/><path d="M486.26 9.126c-.177-.212-.438-.156-.665-.209.4-.272.866-.167 1.3-.239.209-.033.475-.163.422.249z" fill="#807d7c"/><path d="M506.288 19.568c.286-.239.141-.587.22-.878.3.484.141 1.013.216 1.574-.398-.149-.404-.43-.436-.696z" fill="#767572"/><path d="M487.319 8.926l-.422-.249c.318-.226.67-.151 1.134-.16-.134.267-.414.428-.712.409z" fill="#49433d"/><path d="M467.53 37.637l.187.41-.255 1.055a1.75 1.75 0 0 1 .068-1.465z" fill="#6f6c68"/><path d="M483.987 16.993l-.459.209-.927-.293a1.66 1.66 0 0 1 1.386.084z" fill="#7f7d7a"/><path d="M497.681 12.603l.279-.219.706.36a.98.98 0 0 1-.985-.141z" fill="#7e7c7a"/><path d="M479.778 22.162l-.523-.029.519-.3c.109-.051.282-.139.284.1.002.158-.14.209-.28.229z" fill="#838280"/><path d="M493.641 11.251c-.028.163-.117.192-.22.157-.064-.021-.119-.066-.152-.125-.066-.15.056-.188.156-.17.082.014.153.095.216.138z" fill="#423c35"/><path d="M486.245 71.439c-.271-.274-.417-.674-.821-.815l-1.654-1.663-.042-.234a23.58 23.58 0 0 1 8.528-5.1 18.04 18.04 0 0 0 2.942-1.061l2.139-.008c.446.39.347.9.271 1.381l-1.28 6.763c-.048.164-.13.316-.239.447-.856.492-1.07 1.419-1.488 2.209l-.065.069c-.238-.333-.651-.493-1.051-.407a14.47 14.47 0 0 1-2.94-.2c-.35-.1-.634-.044-.764.346-.379-.983-1.019-1.844-1.851-2.491-.373-.262-.751-.583-1.24-.41-.572.198-.371.752-.445 1.174z" fill="#9a6f52"/><path d="M484.966 47.864c-.987.098-1.983.02-2.942-.231-.5-.208-.984-.411-1.065-1.055a1.4 1.4 0 0 1 .658-1.355c2.236-1.711 4.968-2.647 7.784-2.666h1.914c1.344 0 2.208.6 2.386 1.626.12 1.106-.606 2.126-1.69 2.375-2.286.739-4.568 1.555-7.045 1.306z" fill="#a67653"/><path d="M481.59 41.696c-.427-.465-.2-.946.032-1.367a9.08 9.08 0 0 1 6.314-4.925 2.99 2.99 0 0 1 3.191 1.608c.183.4.647 1.047-.381 1.087-.516-.021-.771-.446-1.12-.725a1.55 1.55 0 0 0-1.619-.415 3.1 3.1 0 0 1 .451 2.959c-.233.556-.705.976-1.284 1.142a2.85 2.85 0 0 1-1.044.114c-1.271.043-1.9-.731-2.267-1.909-.922.742-1.363 1.811-2.273 2.431z" fill="#342015"/><path d="M490.322 52.12l.373.028a2.67 2.67 0 0 1 1.538.263c1.323.496 2.718.776 4.13.828a5.55 5.55 0 0 0 4.688-1.987.93.93 0 0 1 .61-.387c.552.781.253 2.407-.63 3.428a5.39 5.39 0 0 1-6.842 1.023 16.25 16.25 0 0 1-4.09-2.971c-.053-.201.002-.295.223-.225z" fill="#a03b32"/><path d="M491.172 51.448c-.448-.4-1.1.008-1.826-.47 4.67-.87 9.01-2.212 13.65-1.756-.166.756-1 .66-1.2 1.225a7.03 7.03 0 0 1-3.3 1.335c-1.908.391-3.865.477-5.8.253a1.78 1.78 0 0 1-1.524-.587z" fill="#872a2a"/><path d="M500.967 35.735c-.495.3-.477.923-.82 1.32-.067-.023-.173-.039-.175-.063-.149-1.933 1.811-4.762 3.641-5.265a2.09 2.09 0 0 1 2.837 1.6c.046.266.175.64-.109.78-.357.177-.426-.252-.589-.455-.324-.406-.556-.939-1.221-.859-.449.347-.347.691-.121 1.162a2.53 2.53 0 0 1-.764 3.4c-.402.226-.881.27-1.318.121s-.789-.475-.97-.899c-.158-.272-.099-.639-.391-.842z" fill="#352116"/><path d="M491.174 51.448a18.57 18.57 0 0 0 10.313-1.01c.087-.038.209 0 .315.009l-.137.418c-1.058 2.186-3.019 2.728-5.192 2.737a12.02 12.02 0 0 1-5.774-1.455c-.342-.567-.053-.715.475-.699z" fill="#fdfdfd"/><path d="M477.935 35.874c3.385-2.369 6.426-5.456 11.038-5.186.583.034 1.534-.219 1.563.613.025.731-.926.571-1.465.644-2.675.367-5.236 1.321-7.5 2.792a5.99 5.99 0 0 1-3.636 1.137z" fill="#352115"/><path d="M487.151 40.917c1.61-1.185 1.65-2.449.129-4.154 1.67-.581 1.99-.458 3.468 1.335a.6.6 0 0 0 .007.1c.47 1.934.453 1.974-1.448 2.5l-1.731.4c-.194.063-.408.173-.425-.181z" fill="#fcfcfc"/><path d="M467.32 41.481c.725-.859 1.984-1.029 2.911-.391a8.99 8.99 0 0 1 2.26 2.07c.243.272.391.557-.021.892-1.708 1.39-1.125 2.917.5 3.759.391.2.889.22 1.2.631-2.047.041-3.781-1.523-3.653-3.284a3.34 3.34 0 0 1 .2-.813c.15-.443.865-.7.347-1.361-.554-.706-1.061-1.439-2.061-1.5-.484-.027-.972-.003-1.683-.003zm28.714 29.334l1.167-6.914c.073-.446.092-.9.136-1.351a2.57 2.57 0 0 1 1.015-.459q.014.341.029.682c-.186.263.034.517.017.776a18.68 18.68 0 0 1-.659 4.717c-.159.883-.472 1.75.789 2.073.139.035.147.221.08.367-.7.552-1.505.216-2.263.28a.46.46 0 0 1-.311-.171zm6.594-27.393l.055.628c-.874 1.8-2.473 2.343-4.294 2.328-.808-.006-1.843.461-2.4-.553 2.283-.743 4.777-.657 6.639-2.403z" fill="#754125"/><path d="M503.511 37.285c1.259-1.27 1.239-2.651-.082-4.165a1.2 1.2 0 0 1 1.1-.326 5.12 5.12 0 0 1 1.512 2.694c.138.775.02 1.367-.9 1.542a11.92 11.92 0 0 0-1.392.436c-.225.13-.244-.009-.238-.181z" fill="#fcfbfb"/><path d="M481.591 41.696c.591-1.209 1.447-2.269 2.506-3.1a2.43 2.43 0 0 0 1.956 2.5c.087.037.114.073.084.105-.022.028-.055.045-.09.047z" fill="#fbfaf9"/><path d="M503.511 37.284l.238.18-2.814 1.109c-.448.185-.521.054-.512-.4.018-.857.45-1.609.544-2.441.252-.391.3-.324.439.1.426 1.356.934 1.673 2.105 1.452z" fill="#faf9f8"/><path d="M471.2 51.647c-.439.326-.727.858-1.321.975.163-.564.684-.8 1.061-1.177z" fill="#a9d5d5"/><path d="M486.047 41.254q0-.076.006-.152l1.1-.184.425.18a2.41 2.41 0 0 1-1.531.156z" fill="#d8cdc5"/><path d="M490.319 52.119l-.223.225c-.209-.119-.423-.233-.481-.52.326-.098.509.117.704.295z" fill="#a45641"/><path d="M498.631 70.603l-.087-.06c-.454-.347-1.28.233-1.477-.4-.147-.474.165-1.086.261-1.639q.441-2.542.872-5.084c.233-.136.293.071.394.2a21.83 21.83 0 0 0 2.552 3.982c-.15.577-.026 1.217-.4 1.743l-.639.859a1.3 1.3 0 0 0-.669.876c-.171.055-.357.035-.511-.056s-.262-.244-.296-.421z" fill="#9a6f52"/><path d="M500.748 69.339c.089-.591-.271-1.284.4-1.742l.46.708c-.279.352-.449.793-.86 1.034z" fill="#e5e3e0"/><path d="M498.594 63.614l-.394-.2a.68.68 0 0 1 .18-.64z" fill="#8c5d41"/><g fill="#3a2b1d"><path d="M498.632 70.603c.338.04.548.3.809.472q.01.212.019.423c-.818.785-1.855 1.301-2.974 1.481-.586-.658-.252-1.411-.22-2.133.753-.432 1.584-.102 2.366-.243z"/><path d="M494.601 73.354c-.261-.976.281-1.986 1.238-2.308.512.639.351 1.415.439 2.14l-.648.219z"/></g><path d="M496.277 73.186a3.59 3.59 0 0 1-.439-2.14l.194-.227.232.027c.591.119.234.516.233.805l-.013 1.327z" fill="#312013"/><g transform="translate(0 1)" clip-path="url(#clip-path)"><path d="M35.475 79C25.654 66.393 12.24 68.671 5.645 59.865c-6.55-8.747-2.851-11.954.048-25.336C8.256 22.699.999 6.776.999 6.776l34.475-4.777s-1.443 0 34.482 4.777c0 0-6.711 13.413-4.7 27.753 1.9 13.534 5.154 17.191-1.392 25.336-6.91 8.597-18.049 6.437-28.389 19.135z" fill="#c9273e"/><g fill="#fff"><path d="M12.195 36.605h4.789v9.227h12.58v-9.227h4.787v22.838h-4.789v-10.13h-12.58v10.13h-4.789zm48.483 14.453a8.18 8.18 0 0 1-.837 3.726 8.46 8.46 0 0 1-2.28 2.823c-1.02.804-2.18 1.411-3.421 1.791a14.98 14.98 0 0 1-8.59 0 10.7 10.7 0 0 1-3.44-1.791 8.17 8.17 0 0 1-2.28-2.823c-.557-1.162-.837-2.438-.817-3.726V36.605h4.789v14.291a6.66 6.66 0 0 0 .3 1.985 4.6 4.6 0 0 0 1.012 1.762 5.14 5.14 0 0 0 1.863 1.258 8.74 8.74 0 0 0 5.739 0c.706-.277 1.341-.707 1.862-1.258.461-.505.805-1.105 1.007-1.758.199-.643.3-1.312.3-1.985V36.605h4.789z"/><path d="M9.036 11.002h5.269l5.231 18.8h.077l5.956-18.8h4.964l5.843 18.8h.076l5.346-18.8h5.117l-7.9 25.6h-4.659l-6.339-19.2h-.076l-6.339 19.2h-4.618zm39.413 9.572a8.34 8.34 0 0 1 1.391-5.271c1.049-1.212 2.61-1.855 4.208-1.736a4.61 4.61 0 0 1 4.943 4.93 5.83 5.83 0 0 1-.753 2.977c-.5.867-1.239 1.572-2.128 2.031a6.61 6.61 0 0 1-3.143.729 6.92 6.92 0 0 1-.753-.031l-1.081-.093v4.156h4.715v2.295h-4.714v13.861h-2.685V20.574zm4.055 1.334c1.077.062 2.141-.263 3-.915a3.11 3.11 0 0 0 1.1-2.527 2.75 2.75 0 0 0-.622-1.922 2.19 2.19 0 0 0-1.7-.682 2.29 2.29 0 0 0-2.144 1.3c-.546 1.27-.786 2.65-.7 4.03v.714z"/></g><g fill="#231f20"><path d="M82.922 19.912c-.207.22-.318.514-.308.816-.007.502.282.961.739 1.17l-1.14 1.91c-.575-.267-1.066-.689-1.417-1.217a3.29 3.29 0 0 1-.554-1.894 3.37 3.37 0 0 1 3.45-3.45h14.384v2.341H83.662c-.282-.003-.551.115-.74.324zm1.355.909h2.526v5.174h7.7v2.341h-7.7v7.669h11.273v2.341h-13.8zm19.927 15.351a.72.72 0 0 0 .554.231.85.85 0 0 0 .77-.554l1.817 1.14c-.261.505-.648.935-1.124 1.247a2.92 2.92 0 0 1-1.618.447 3.1 3.1 0 0 1-2.294-.847c-.588-.627-.894-1.467-.847-2.325V15.952h2.526v19.65a.8.8 0 0 0 .216.57zm5.514-16.739a1.53 1.53 0 0 1-.493-1.109c0-.432.178-.844.493-1.14a1.53 1.53 0 0 1 1.109-.493 1.61 1.61 0 0 1 1.154.493 1.54 1.54 0 0 1 .508 1.14c-.005.425-.19.828-.508 1.109a1.61 1.61 0 0 1-1.154.493 1.53 1.53 0 0 1-1.109-.493zm2.618 16.74a.72.72 0 0 0 .554.231.85.85 0 0 0 .769-.554l1.817 1.14a3.3 3.3 0 0 1-1.123 1.247 2.92 2.92 0 0 1-1.618.447 3.1 3.1 0 0 1-2.294-.847c-.589-.626-.895-1.467-.848-2.325v-12.6h2.526v12.694a.8.8 0 0 0 .217.567zm4.095-.108l1.448-1.694a9.41 9.41 0 0 0 2.218 1.494 5.27 5.27 0 0 0 2.218.477 3.87 3.87 0 0 0 2.387-.662 2.17 2.17 0 0 0 .878-1.833c.02-.41-.106-.813-.354-1.14a2.99 2.99 0 0 0-1.016-.755q-.664-.323-2.2-.939a26.52 26.52 0 0 1-2.633-1.186 4.28 4.28 0 0 1-1.493-1.294 3.3 3.3 0 0 1-.554-1.956 3.87 3.87 0 0 1 1.355-3.08 5.18 5.18 0 0 1 3.51-1.17 8.18 8.18 0 0 1 2.542.416 5.72 5.72 0 0 1 2.017 1.063l-1.078 1.817a5.32 5.32 0 0 0-3.234-1.016 3.24 3.24 0 0 0-1.863.477 1.51 1.51 0 0 0-.692 1.309c-.02.537.243 1.045.692 1.34a13.26 13.26 0 0 0 2.388 1.155 25.79 25.79 0 0 1 2.988 1.386 4.82 4.82 0 0 1 1.632 1.432 3.57 3.57 0 0 1 .554 2.048c.043 1.365-.548 2.672-1.6 3.542-1.165.937-2.632 1.419-4.126 1.355a8.2 8.2 0 0 1-5.984-2.586zm16.863 1.493a6.88 6.88 0 0 1-2.279-2.941 10.13 10.13 0 0 1-.785-4c-.025-1.446.28-2.879.893-4.189a6.9 6.9 0 0 1 2.633-2.926 7.77 7.77 0 0 1 4.174-1.078q.707 0 1.77.077 1.063.077 1.8.2h2.064v12.782a.98.98 0 0 0 .2.662.75.75 0 0 0 .6.231c.354-.003.677-.206.832-.524l1.725 1.14c-.261.507-.662.93-1.155 1.217a3.12 3.12 0 0 1-1.617.447c-.71.017-1.403-.217-1.956-.662-.503-.367-.823-.934-.877-1.555v.031a3.65 3.65 0 0 1-1.757 1.6 6.23 6.23 0 0 1-2.71.585 5.85 5.85 0 0 1-3.555-1.097zm5.928-1.833c.617-.408 1.116-.971 1.448-1.632.16-.276.27-.579.324-.893a6.8 6.8 0 0 0 .045-.832v-7.454l-1.293-.092q-1.543-.122-2.064-.123a4.34 4.34 0 0 0-3.635 1.663c-.897 1.219-1.354 2.707-1.294 4.22a7.18 7.18 0 0 0 1.14 4.081 3.58 3.58 0 0 0 3.142 1.709 3.81 3.81 0 0 0 2.188-.646zm12.258 2.742a12.13 12.13 0 0 1-1.386-.231c-.375-.075-.746-.173-1.109-.293V15.952h2.526v7.946a5.9 5.9 0 0 1 1.925-1.109 6.67 6.67 0 0 1 2.2-.37 6.03 6.03 0 0 1 3.5 1.047c1.04.728 1.857 1.732 2.356 2.9.571 1.311.854 2.729.832 4.158a9.76 9.76 0 0 1-.832 4.081 6.67 6.67 0 0 1-2.6 2.941 8.31 8.31 0 0 1-4.481 1.109 22.27 22.27 0 0 1-2.931-.188zm7.054-3.727a6.57 6.57 0 0 0 1.262-4.189 7.91 7.91 0 0 0-.57-3.142 4.66 4.66 0 0 0-1.54-2.017 3.6 3.6 0 0 0-2.141-.693c-.938.026-1.844.35-2.587.924a3.5 3.5 0 0 0-1.447 2.618v7.916l1.2.123q.616.062 1.663.062c1.562.15 3.103-.443 4.16-1.602zm9.224 2.911a6.43 6.43 0 0 1-2.449-2.71 8.64 8.64 0 0 1-.832-3.835c-.001-1.395.271-2.776.8-4.066a7.99 7.99 0 0 1 2.4-3.265 6.07 6.07 0 0 1 3.942-1.294 6.85 6.85 0 0 1 2.864.6 5.07 5.07 0 0 1 2.111 1.725c.527.763.802 1.673.785 2.6a4.3 4.3 0 0 1-1.941 3.727 8.33 8.33 0 0 1-5.051 1.294l-3.2-.062c.147 1.122.674 2.16 1.493 2.941a4.43 4.43 0 0 0 3.065 1.032c1.721-.02 3.388-.604 4.744-1.663l1.385 1.756c-1.767 1.414-3.958 2.195-6.221 2.218-1.366.041-2.717-.305-3.895-.998zm5.9-8.147a2.31 2.31 0 0 0 1.2-2.125 2.28 2.28 0 0 0-.909-1.94 3.53 3.53 0 0 0-2.171-.678 3.8 3.8 0 0 0-2.464.847c-.696.564-1.245 1.288-1.6 2.11-.355.789-.574 1.633-.647 2.495h3.326c1.131.056 2.257-.189 3.263-.709zm7.343 7.839c-.785-1.049-1.172-2.342-1.093-3.65V18.971h2.527v3.973h4.712v2.277h-4.712v8.47a3.51 3.51 0 0 0 .462 1.863 1.49 1.49 0 0 0 1.355.755 2.3 2.3 0 0 0 1.509-.508 3.31 3.31 0 0 0 .955-1.371l1.971 1.263c-.731 1.803-2.49 2.976-4.435 2.957a3.99 3.99 0 0 1-3.251-1.307zm22.192-1.17a.72.72 0 0 0 .554.231.85.85 0 0 0 .771-.554l1.817 1.14c-.262.505-.649.935-1.125 1.247a2.92 2.92 0 0 1-1.616.447 3.1 3.1 0 0 1-2.3-.847 3.14 3.14 0 0 1-.846-2.325v-7.886q0-2.925-2.988-2.926a4.1 4.1 0 0 0-2.342.662 9.17 9.17 0 0 0-2.064 2.079v10.842h-2.525V15.86h2.525v8.5a6.35 6.35 0 0 1 4.62-2 5.35 5.35 0 0 1 3.927 1.355c.962 1.031 1.458 2.412 1.371 3.819v8.07a.8.8 0 0 0 .221.569zm14.599 1.632a6.93 6.93 0 0 1-2.8-3.434c-.231-.62-.346-1.278-.339-1.94q0-.339.062-1.016l2.31.339a2.97 2.97 0 0 0-.031.524 3.93 3.93 0 0 0 .246 1.417c.378.918 1.036 1.694 1.879 2.218.914.599 1.987.91 3.08.893a5.23 5.23 0 0 0 2.372-.554 4.8 4.8 0 0 0 1.786-1.494 3.48 3.48 0 0 0 .677-2.079c.025-1.115-.45-2.182-1.294-2.911a12.82 12.82 0 0 0-3.542-2.11 13.08 13.08 0 0 1-3.927-2.479c-.974-.901-1.517-2.174-1.494-3.5a4.59 4.59 0 0 1 .739-2.495 5.45 5.45 0 0 1 2.033-1.879 5.88 5.88 0 0 1 2.864-.708c1.047-.033 2.089.145 3.065.524a3.98 3.98 0 0 1 1.787 1.371 3.34 3.34 0 0 1 .6 1.771c.023.759-.247 1.499-.755 2.064-.487.548-1.192.852-1.925.832-.483-.003-.957-.136-1.371-.385a2.65 2.65 0 0 1-1.032-1.093l1.91-1.047a.4.4 0 0 0 .431.277q.37 0 .37-.585 0-.585-.893-1a5 5 0 0 0-2.125-.416 3.24 3.24 0 0 0-2.295.816c-.558.484-.878 1.186-.878 1.925a2.73 2.73 0 0 0 1.14 2.2c.947.72 1.969 1.334 3.049 1.833a23.86 23.86 0 0 1 3.265 1.863 7.05 7.05 0 0 1 2.048 2.187 6.2 6.2 0 0 1-.246 6.345c-.671.978-1.59 1.76-2.664 2.264a8.2 8.2 0 0 1-3.6.8 8 8 0 0 1-4.502-1.338zm16.06-.462a5.53 5.53 0 0 1-1.093-3.65V18.971h2.526v3.973h4.711v2.277h-4.711v8.47a3.5 3.5 0 0 0 .462 1.863 1.49 1.49 0 0 0 1.355.755c.547.016 1.082-.164 1.508-.508a3.29 3.29 0 0 0 .955-1.371l1.971 1.263c-.73 1.803-2.489 2.976-4.434 2.957a3.99 3.99 0 0 1-3.25-1.307zm11.833.308a6.43 6.43 0 0 1-2.449-2.71 8.64 8.64 0 0 1-.832-3.835 10.7 10.7 0 0 1 .8-4.066 7.99 7.99 0 0 1 2.4-3.265c1.122-.881 2.518-1.339 3.943-1.294a6.85 6.85 0 0 1 2.864.6 5.07 5.07 0 0 1 2.111 1.725c.527.763.802 1.673.785 2.6a4.3 4.3 0 0 1-1.941 3.727 8.33 8.33 0 0 1-5.051 1.294l-3.2-.062a4.96 4.96 0 0 0 1.493 2.941 4.43 4.43 0 0 0 3.065 1.032c1.721-.02 3.388-.604 4.744-1.663l1.385 1.756c-1.767 1.414-3.958 2.195-6.221 2.218a7.26 7.26 0 0 1-3.896-.998zm5.9-8.147a2.31 2.31 0 0 0 1.2-2.125 2.28 2.28 0 0 0-.909-1.94 3.53 3.53 0 0 0-2.171-.678 3.8 3.8 0 0 0-2.464.847c-.696.564-1.245 1.288-1.6 2.11-.355.789-.574 1.633-.647 2.495h3.326a6.42 6.42 0 0 0 3.258-.709zm9.742 8.147a6.43 6.43 0 0 1-2.449-2.71 8.64 8.64 0 0 1-.832-3.835 10.7 10.7 0 0 1 .8-4.066 7.99 7.99 0 0 1 2.4-3.265c1.122-.881 2.518-1.339 3.943-1.294a6.85 6.85 0 0 1 2.864.6c.848.371 1.578.968 2.111 1.725.527.763.802 1.673.785 2.6a4.3 4.3 0 0 1-1.941 3.727 8.33 8.33 0 0 1-5.051 1.294l-3.2-.062a4.96 4.96 0 0 0 1.493 2.941 4.43 4.43 0 0 0 3.065 1.032c1.721-.02 3.388-.604 4.744-1.663l1.385 1.756c-1.767 1.414-3.958 2.195-6.221 2.218a7.26 7.26 0 0 1-3.896-.998zm5.9-8.147a2.31 2.31 0 0 0 1.2-2.125 2.28 2.28 0 0 0-.909-1.94 3.53 3.53 0 0 0-2.171-.678 3.8 3.8 0 0 0-2.464.847c-.696.564-1.245 1.288-1.6 2.11-.355.789-.574 1.633-.647 2.495h3.326a6.42 6.42 0 0 0 3.263-.709zm9.884 6.668c.143.154.345.238.555.231a.85.85 0 0 0 .769-.554l1.817 1.14a3.3 3.3 0 0 1-1.123 1.247 2.92 2.92 0 0 1-1.618.447 3.1 3.1 0 0 1-2.295-.847 3.14 3.14 0 0 1-.847-2.325V15.952h2.526v19.65a.8.8 0 0 0 .216.57zm7.074 1.479a6.43 6.43 0 0 1-2.449-2.71 8.64 8.64 0 0 1-.832-3.835c-.001-1.395.271-2.776.8-4.066a7.98 7.98 0 0 1 2.4-3.265c1.122-.881 2.517-1.339 3.943-1.294a6.85 6.85 0 0 1 2.864.6 5.07 5.07 0 0 1 2.111 1.725c.527.763.802 1.673.785 2.6a4.3 4.3 0 0 1-1.941 3.727 8.33 8.33 0 0 1-5.051 1.294l-3.2-.062a4.96 4.96 0 0 0 1.493 2.941 4.43 4.43 0 0 0 3.065 1.032c1.721-.02 3.388-.604 4.744-1.663l1.385 1.756c-1.767 1.414-3.958 2.195-6.221 2.218a7.26 7.26 0 0 1-3.896-.998zm5.9-8.147a2.31 2.31 0 0 0 1.2-2.125 2.28 2.28 0 0 0-.909-1.94 3.53 3.53 0 0 0-2.171-.678 3.8 3.8 0 0 0-2.464.847c-.696.564-1.245 1.288-1.6 2.11-.355.789-.574 1.633-.647 2.495h3.326a6.42 6.42 0 0 0 3.258-.709zm15.947-10.471c-.254-.012-.503.077-.693.246a1.08 1.08 0 0 0-.323.647l-2.218-.4a2.99 2.99 0 0 1 1.093-2.125 3.5 3.5 0 0 1 2.233-.739 3.72 3.72 0 0 1 2.433.832 3.15 3.15 0 0 1 1.016 2.587v6.1h10.315v-8.97h2.526v21.16h-2.526v-9.79h-10.314v9.794h-2.526v-18.3a.91.91 0 0 0-1.016-1.042z"/><path d="M334.829 38.036a7.64 7.64 0 0 1-2.864.554 5.78 5.78 0 0 1-3.788-1.186c-1.01-.888-1.564-2.184-1.509-3.527v-6.283a4.38 4.38 0 0 0-1.292-3.51l1.695-1.571a4.14 4.14 0 0 1 1.432 1.54 4.79 4.79 0 0 1 .693 2.372v6.653a3.72 3.72 0 0 0 .678 2.4 2.74 2.74 0 0 0 2.248.832 4.08 4.08 0 0 0 2.341-.647 9.54 9.54 0 0 0 2.094-2.156l.031-10.564h2.526v12.536a.98.98 0 0 0 .2.662c.156.163.376.247.6.231.354-.003.677-.206.832-.524l1.725 1.14a3 3 0 0 1-1.156 1.217 3.12 3.12 0 0 1-1.616.447 3 3 0 0 1-1.956-.662 2.16 2.16 0 0 1-.878-1.555v.031a4.12 4.12 0 0 1-2.036 1.57zm10.549-.693c-.785-1.049-1.172-2.342-1.093-3.65V18.971h2.526v3.973h4.712v2.277h-4.712v8.47a3.51 3.51 0 0 0 .462 1.863 1.49 1.49 0 0 0 1.355.755 2.3 2.3 0 0 0 1.509-.508 3.31 3.31 0 0 0 .955-1.371l1.971 1.263c-.731 1.803-2.49 2.976-4.435 2.957a3.99 3.99 0 0 1-3.25-1.307zm10.549-.847c-1.383-1.54-2.092-3.57-1.971-5.636a10.17 10.17 0 0 1 .909-4.389 7.06 7.06 0 0 1 2.541-2.988 7.15 7.15 0 0 1 6.822-.37c.865.418 1.592 1.075 2.094 1.894a4.3 4.3 0 0 1 .6 2.649h-2.464c.102-.787-.185-1.574-.77-2.11-.658-.587-1.52-.891-2.4-.847-.897-.014-1.775.255-2.51.77a4.96 4.96 0 0 0-1.694 2.187 8.22 8.22 0 0 0-.6 3.234c-.096 1.439.361 2.86 1.278 3.973a4.72 4.72 0 0 0 3.651 1.386 6.54 6.54 0 0 0 2.124-.37 18.28 18.28 0 0 0 2.71-1.263l1.17 1.91a9.87 9.87 0 0 1-6.005 2 7.28 7.28 0 0 1-5.485-2.03zm27.074-.323a.72.72 0 0 0 .554.231.85.85 0 0 0 .771-.554l1.817 1.14c-.262.505-.649.935-1.125 1.247a2.92 2.92 0 0 1-1.616.447 3.1 3.1 0 0 1-2.3-.847 3.14 3.14 0 0 1-.846-2.325v-7.886q0-2.925-2.988-2.926a4.1 4.1 0 0 0-2.342.662 9.17 9.17 0 0 0-2.064 2.079v10.842h-2.525V15.86h2.525v8.5a6.35 6.35 0 0 1 4.621-2 5.35 5.35 0 0 1 3.926 1.355c.962 1.031 1.458 2.412 1.371 3.819v8.07a.8.8 0 0 0 .221.569zm5.513-16.74a1.53 1.53 0 0 1-.493-1.109c0-.432.178-.844.493-1.14a1.53 1.53 0 0 1 1.109-.493 1.62 1.62 0 0 1 1.155.493c.322.292.506.706.507 1.14a1.51 1.51 0 0 1-.507 1.109 1.62 1.62 0 0 1-1.155.493 1.53 1.53 0 0 1-1.109-.493zm2.618 16.74c.143.154.345.238.554.231a.85.85 0 0 0 .77-.554l1.817 1.14c-.261.505-.648.935-1.124 1.247a2.92 2.92 0 0 1-1.617.447 3.1 3.1 0 0 1-2.295-.847 3.14 3.14 0 0 1-.847-2.325v-12.6h2.526v12.694a.8.8 0 0 0 .216.567zm4.095-.108l1.448-1.694a9.42 9.42 0 0 0 2.218 1.494 5.27 5.27 0 0 0 2.218.477 3.87 3.87 0 0 0 2.387-.662c.579-.427.908-1.114.878-1.833a1.74 1.74 0 0 0-.354-1.14 3 3 0 0 0-1.016-.755q-.663-.323-2.2-.939a26.44 26.44 0 0 1-2.634-1.186 4.28 4.28 0 0 1-1.493-1.294c-.386-.578-.58-1.262-.555-1.956a3.87 3.87 0 0 1 1.355-3.08 5.18 5.18 0 0 1 3.51-1.17c.864.003 1.722.144 2.542.416a5.72 5.72 0 0 1 2.017 1.063l-1.077 1.817a5.32 5.32 0 0 0-3.235-1.016 3.24 3.24 0 0 0-1.863.477 1.51 1.51 0 0 0-.693 1.309c-.02.537.243 1.045.693 1.34.755.464 1.555.851 2.387 1.155 1.025.398 2.023.861 2.988 1.386a4.82 4.82 0 0 1 1.633 1.432 3.57 3.57 0 0 1 .554 2.048c.043 1.365-.548 2.672-1.6 3.542a6.17 6.17 0 0 1-4.127 1.355c-2.265 0-4.43-.935-5.981-2.586zm17.448 1.539a7.36 7.36 0 0 1-2.726-2.88 9.21 9.21 0 0 1 .016-8.316c.633-1.205 1.58-2.217 2.742-2.926a7.38 7.38 0 0 1 3.926-1.063c1.381-.02 2.74.342 3.927 1.047a7.32 7.32 0 0 1 2.727 2.911 8.8 8.8 0 0 1 .985 4.173 8.7 8.7 0 0 1-.985 4.158 7.31 7.31 0 0 1-2.741 2.9 7.55 7.55 0 0 1-3.943 1.047c-1.381.02-2.741-.344-3.928-1.051zm7.669-2.834a7.1 7.1 0 0 0 0-8.47 4.69 4.69 0 0 0-3.711-1.6 4.84 4.84 0 0 0-4.5 2.8 6.87 6.87 0 0 0-.647 3.049c-.073 1.534.432 3.04 1.416 4.22a4.74 4.74 0 0 0 3.727 1.6 4.69 4.69 0 0 0 3.715-1.598zm22.776 2.219a3.3 3.3 0 0 1-1.123 1.247 2.92 2.92 0 0 1-1.618.447 3.1 3.1 0 0 1-2.294-.847 3.14 3.14 0 0 1-.848-2.325v-7.546a3.73 3.73 0 0 0-.646-2.356c-.573-.601-1.392-.903-2.218-.816-.856-.025-1.7.212-2.418.678-.79.573-1.482 1.27-2.048 2.064v10.842h-2.526V27.564a4.38 4.38 0 0 0-1.295-3.511l1.695-1.571a3.28 3.28 0 0 1 1.016.909 5.58 5.58 0 0 1 .8 1.432 6.1 6.1 0 0 1 4.927-2.31 5.48 5.48 0 0 1 3.7 1.217c.975.876 1.534 2.123 1.54 3.434v8.439a.8.8 0 0 0 .216.57.72.72 0 0 0 .554.231.85.85 0 0 0 .769-.554zM92.351 61.207h.039l3.483-11.984h1.693l3.482 11.984h.039l3.4-11.984h1.5l-4.113 13.932h-1.653l-3.5-11.964h-.039l-3.5 11.964h-1.653l-4.112-13.932h1.5zm30.289-5.018a7.63 7.63 0 0 1-.551 2.932c-.701 1.747-2.083 3.132-3.828 3.837-1.852.735-3.914.735-5.766 0-1.744-.706-3.126-2.091-3.828-3.837a8.09 8.09 0 0 1 0-5.864 6.93 6.93 0 0 1 3.828-3.837c1.852-.735 3.914-.735 5.766 0 1.745.705 3.127 2.09 3.828 3.837a7.63 7.63 0 0 1 .551 2.932zm-1.5.01c.004-.79-.129-1.575-.393-2.319a5.77 5.77 0 0 0-1.141-1.934 5.47 5.47 0 0 0-1.82-1.327 6.16 6.16 0 0 0-4.822 0c-.692.311-1.312.763-1.82 1.327s-.891 1.221-1.141 1.934a7.02 7.02 0 0 0 0 4.636 5.68 5.68 0 0 0 1.141 1.926 5.52 5.52 0 0 0 1.82 1.316 6.16 6.16 0 0 0 4.822 0c.69-.309 1.31-.757 1.82-1.316a5.65 5.65 0 0 0 1.141-1.926 6.82 6.82 0 0 0 .397-2.317zm6.852 6.956h-1.417V49.223h4.093a8.67 8.67 0 0 1 1.9.2 4.3 4.3 0 0 1 1.516.64 3.02 3.02 0 0 1 .993 1.151c.251.542.372 1.135.354 1.732a3.41 3.41 0 0 1-1.023 2.49 3.58 3.58 0 0 1-1.122.737 4.86 4.86 0 0 1-1.417.354l4.071 6.628h-1.73l-3.857-6.513h-2.361zm0-7.733h2.46a4.72 4.72 0 0 0 2.637-.619 2.09 2.09 0 0 0 .925-1.86 2.41 2.41 0 0 0-.256-1.161 2.1 2.1 0 0 0-.708-.767 3.24 3.24 0 0 0-1.1-.433 6.93 6.93 0 0 0-1.436-.138h-2.519zm12.771.059h.02l6.631-6.258h2.027l-7.025 6.317 7.419 7.615h-2.086l-6.966-7.419h-.02v7.419h-1.417V49.223h1.417zm18.113-5.844a2.97 2.97 0 0 1 2.528-1.1 2.85 2.85 0 0 1 2.165.846 3.17 3.17 0 0 1 .808 2.283 3.87 3.87 0 0 1-.453 1.889 3.22 3.22 0 0 1-1.279 1.289 4.26 4.26 0 0 1-2.341.442l-.65-.059v2.637h2.834v1.456h-2.834v8.8h-1.614V52.982a5.51 5.51 0 0 1 .836-3.345zm3.227 3.611a2.03 2.03 0 0 0 .66-1.6 1.81 1.81 0 0 0-.375-1.22 1.28 1.28 0 0 0-1.023-.433 1.37 1.37 0 0 0-1.288.826 5.87 5.87 0 0 0-.423 2.558v.453h.65a2.63 2.63 0 0 0 1.799-.584zm9.337-.066l-.039 1.555a5.07 5.07 0 0 0-1.279-.216 2.16 2.16 0 0 0-1.437.433 4.12 4.12 0 0 0-1.022 1.259v6.966h-1.614v-6.966a2.8 2.8 0 0 0-.826-2.243l1.083-1a2.57 2.57 0 0 1 .6.531 3.2 3.2 0 0 1 .5.807 3.8 3.8 0 0 1 .885-.846c.54-.326 1.162-.49 1.792-.472a5.75 5.75 0 0 1 1.357.192zm3.079 9.497a4.7 4.7 0 0 1-1.741-1.839 5.88 5.88 0 0 1 .009-5.313 4.8 4.8 0 0 1 1.752-1.869 4.71 4.71 0 0 1 2.508-.679 4.77 4.77 0 0 1 2.509.669 4.68 4.68 0 0 1 1.742 1.86 5.95 5.95 0 0 1 0 5.322c-.401.767-1.007 1.408-1.751 1.85-.762.45-1.634.681-2.519.669a4.77 4.77 0 0 1-2.509-.67zm4.9-1.81c1.194-1.606 1.194-3.805 0-5.411a3 3 0 0 0-2.372-1.023 3.09 3.09 0 0 0-2.872 1.791c-.286.609-.427 1.276-.414 1.948-.048.982.276 1.946.906 2.7a3.27 3.27 0 0 0 4.752 0zm19.923 1.42a2.12 2.12 0 0 1-.719.8c-.309.194-.668.293-1.033.285-.542.028-1.072-.168-1.466-.541a2.01 2.01 0 0 1-.541-1.486v-5.075a2.15 2.15 0 0 0-.472-1.358c-.325-.285-.75-.427-1.181-.394a2.62 2.62 0 0 0-1.407.384 3.2 3.2 0 0 0-1.092 1.308v6.96h-1.614v-6.651a2.34 2.34 0 0 0-.413-1.485c-.3-.359-.753-.553-1.22-.522-.535-.002-1.059.16-1.5.463-.439.286-.786.692-1 1.17v7.025h-1.612v-6.9a2.8 2.8 0 0 0-.826-2.243l1.082-1a2.33 2.33 0 0 1 .63.561 3.31 3.31 0 0 1 .512.875 4.16 4.16 0 0 1 1.279-1.023 3.31 3.31 0 0 1 1.535-.374c.561-.004 1.112.146 1.594.433A2.99 2.99 0 0 1 191 54.662a4.51 4.51 0 0 1 1.338-1.161 3.24 3.24 0 0 1 1.614-.433c.861-.042 1.706.246 2.361.807.624.621.947 1.483.886 2.361v5.175c-.003.135.046.265.138.364a.46.46 0 0 0 .354.147.54.54 0 0 0 .491-.354zm7.774-13.066h1.417v6.041h7.6v-6.041h1.409v13.932h-1.416v-6.592h-7.6v6.592h-1.417zm28.886 6.966a7.63 7.63 0 0 1-.55 2.932c-.701 1.747-2.083 3.132-3.828 3.837-1.852.735-3.914.735-5.766 0a6.93 6.93 0 0 1-3.828-3.837 8.09 8.09 0 0 1 0-5.864 6.93 6.93 0 0 1 3.828-3.837c1.852-.735 3.914-.735 5.766 0 1.745.705 3.127 2.09 3.828 3.837.374.932.561 1.928.55 2.932zm-1.5.01a6.81 6.81 0 0 0-.394-2.319 5.77 5.77 0 0 0-1.141-1.934c-.508-.564-1.127-1.015-1.819-1.327a6.16 6.16 0 0 0-4.822 0c-.692.311-1.312.763-1.82 1.327a5.77 5.77 0 0 0-1.141 1.934 7.02 7.02 0 0 0 0 4.636 5.66 5.66 0 0 0 1.141 1.926 5.52 5.52 0 0 0 1.82 1.316 6.16 6.16 0 0 0 4.822 0 5.53 5.53 0 0 0 1.819-1.316 5.66 5.66 0 0 0 1.141-1.926 6.82 6.82 0 0 0 .399-2.317zm12.323 4.555h.02l4.664-11.531h2.165v13.932h-1.417v-12.1h-.039l-5.037 12.1h-.748l-5.037-12.1h-.039v12.1h-1.417V49.223h2.161zm12.949 1.141h7.457v1.259h-8.875V49.223h8.635v1.259h-7.221v4.782h6.749v1.259h-6.749zm22.255 1.618a5.41 5.41 0 0 1-2.577-.541 4.6 4.6 0 0 1-1.595-1.368 5.02 5.02 0 0 1-.816-1.8 8.11 8.11 0 0 1-.226-1.84v-8.741h1.416v8.579a6.85 6.85 0 0 0 .2 1.644 4.12 4.12 0 0 0 .639 1.416 3.3 3.3 0 0 0 1.172 1c1.139.511 2.442.511 3.581 0a3.3 3.3 0 0 0 1.171-1c.302-.427.519-.907.639-1.416a6.8 6.8 0 0 0 .2-1.644v-8.579h1.417v8.737c-.005.62-.081 1.237-.227 1.84-.15.648-.427 1.26-.816 1.8a4.58 4.58 0 0 1-1.6 1.368 5.42 5.42 0 0 1-2.578.545zm19.697-2.424h.039V49.223h1.417v13.932h-1.771l-8.107-11.984h-.039v11.984h-1.417V49.223h1.771zm7.557 2.066h-1.417V49.223h1.417zm8.954-1.83h.039l4.526-12.1h1.514l-5.332 13.932h-1.5l-5.313-13.932h1.535zm10.388.57h7.458v1.259h-8.875V49.223h8.639v1.259h-7.222v4.782h6.75v1.259h-6.75zm12.634 1.26h-1.417V49.223h4.091c.639-.004 1.276.063 1.9.2a4.29 4.29 0 0 1 1.516.64 3.01 3.01 0 0 1 .993 1.151c.251.542.372 1.135.354 1.732.016.935-.354 1.836-1.022 2.49a3.58 3.58 0 0 1-1.122.737 4.86 4.86 0 0 1-1.417.354l4.074 6.631h-1.733l-3.856-6.513h-2.361zm0-7.733h2.46a4.72 4.72 0 0 0 2.637-.619 2.09 2.09 0 0 0 .925-1.86c.012-.402-.076-.801-.257-1.161a2.09 2.09 0 0 0-.708-.767 3.24 3.24 0 0 0-1.1-.433 6.97 6.97 0 0 0-1.437-.138h-2.518zm18.103-3.956c-.305-.422-.701-.768-1.16-1.013-.53-.269-1.118-.401-1.712-.384a3.68 3.68 0 0 0-1.044.157c-.348.102-.674.266-.964.483a2.48 2.48 0 0 0-.7.816 2.41 2.41 0 0 0-.265 1.161 2.15 2.15 0 0 0 .255 1.1 2.42 2.42 0 0 0 .678.738 3.89 3.89 0 0 0 .962.5q.539.2 1.128.394l1.462.512a5.28 5.28 0 0 1 1.325.719 3.47 3.47 0 0 1 .961 1.122 3.54 3.54 0 0 1 .374 1.721 3.83 3.83 0 0 1-.4 1.8 3.77 3.77 0 0 1-1.033 1.249 4.28 4.28 0 0 1-1.453.728 5.88 5.88 0 0 1-1.643.236 6.35 6.35 0 0 1-1.259-.128c-.413-.084-.815-.212-1.2-.384a4.88 4.88 0 0 1-1.063-.649 4.67 4.67 0 0 1-.865-.905l1.219-.905a3.73 3.73 0 0 0 1.27 1.25 3.59 3.59 0 0 0 1.918.5 3.73 3.73 0 0 0 1.083-.167c.36-.108.696-.282.993-.512s.543-.519.727-.846a2.62 2.62 0 0 0 0-2.381 2.53 2.53 0 0 0-.756-.807 4.68 4.68 0 0 0-1.083-.542q-.611-.217-1.279-.433-.688-.216-1.358-.492a4.57 4.57 0 0 1-1.2-.719 3.32 3.32 0 0 1-.856-1.092 4 4 0 0 1 .078-3.326 3.66 3.66 0 0 1 1.053-1.2 4.42 4.42 0 0 1 1.437-.689 5.83 5.83 0 0 1 1.555-.216 5.36 5.36 0 0 1 2.42.5 4.15 4.15 0 0 1 1.515 1.19zm6.751 11.689h-1.418V49.223h1.418zm9.149 0h-1.417V50.482h-4.665v-1.259h10.743v1.259h-4.664zm12.278 0h-1.418v-6l-5.214-7.93h1.771l4.19 6.749 4.232-6.749h1.652l-5.214 7.93zm4.271 2.755h-1.122l1.318-4.624h1.4zm11.688-4.015h6.494v1.259h-7.91V49.223h1.417zm11.019 0h6.494v1.259h-7.91V49.223h1.417zm20.346-1.003c-.246.365-.534.7-.856 1a5.56 5.56 0 0 1-1.16.833 6.49 6.49 0 0 1-1.457.57 6.86 6.86 0 0 1-1.741.21c-.997.01-1.987-.177-2.912-.551a6.8 6.8 0 0 1-3.807-3.837 7.74 7.74 0 0 1-.542-2.932 7.63 7.63 0 0 1 .551-2.932 6.92 6.92 0 0 1 3.827-3.837c.915-.373 1.895-.56 2.883-.551a7.17 7.17 0 0 1 2.893.61 5.91 5.91 0 0 1 1.181.7 4.1 4.1 0 0 1 .885.918l-1.181.866a3.57 3.57 0 0 0-.58-.669c-.259-.233-.546-.431-.856-.59-.342-.175-.701-.314-1.072-.413a4.79 4.79 0 0 0-1.25-.157 5.8 5.8 0 0 0-2.431.49 5.47 5.47 0 0 0-1.82 1.324c-.503.563-.89 1.22-1.141 1.932a6.8 6.8 0 0 0-.394 2.314 6.65 6.65 0 0 0 .4 2.315c.256.711.646 1.367 1.15 1.931a5.46 5.46 0 0 0 1.821 1.324 5.73 5.73 0 0 0 2.411.49c.788.003 1.567-.165 2.283-.492a4.32 4.32 0 0 0 1.81-1.574z"/></g></g></svg>
